<?xml version="1.0" encoding="UTF-8" standalone="no"?>
<!-- Created with Inkscape (http://www.inkscape.org/) -->

<svg
   xmlns:dc="http://purl.org/dc/elements/1.1/"
   xmlns:cc="http://creativecommons.org/ns#"
   xmlns:rdf="http://www.w3.org/1999/02/22-rdf-syntax-ns#"
   xmlns:svg="http://www.w3.org/2000/svg"
   xmlns="http://www.w3.org/2000/svg"
   xmlns:sodipodi="http://sodipodi.sourceforge.net/DTD/sodipodi-0.dtd"
   xmlns:inkscape="http://www.inkscape.org/namespaces/inkscape"
   width="64"
   height="64"
   id="svg2"
   version="1.1"
   inkscape:version="0.48.4 r9939"
   sodipodi:docname="spill.svg"
   inkscape:export-filename="/home/henry/gproj/HaxeFlixelPG/SpillColor/assets/spill.png"
   inkscape:export-xdpi="90"
   inkscape:export-ydpi="90">
  <defs
     id="defs4" />
  <sodipodi:namedview
     id="base"
     pagecolor="#fa9494"
     bordercolor="#666666"
     borderopacity="1.0"
     inkscape:pageopacity="0"
     inkscape:pageshadow="2"
     inkscape:zoom="5.6"
     inkscape:cx="28.507459"
     inkscape:cy="24.137672"
     inkscape:document-units="px"
     inkscape:current-layer="layer1"
     showgrid="false"
     inkscape:window-width="1301"
     inkscape:window-height="744"
     inkscape:window-x="65"
     inkscape:window-y="24"
     inkscape:window-maximized="1" />
  <metadata
     id="metadata7">
    <rdf:RDF>
      <cc:Work
         rdf:about="">
        <dc:format>image/svg+xml</dc:format>
        <dc:type
           rdf:resource="http://purl.org/dc/dcmitype/StillImage" />
        <dc:title></dc:title>
      </cc:Work>
    </rdf:RDF>
  </metadata>
  <g
     inkscape:label="Layer 1"
     inkscape:groupmode="layer"
     id="layer1"
     transform="translate(0,-988.36218)">
    <path
       transform="matrix(1.3541667,0,0,1.3541667,-7.3288669,969.3126)"
       d="m 40.658641,33.821693 c 0,6.067074 -5.427129,10.985409 -12.121831,10.985409 -6.694702,0 -12.121831,-4.918335 -12.121831,-10.985409 0,-6.067073 5.427129,-10.985408 12.121831,-10.985408 6.694702,0 12.121831,4.918335 12.121831,10.985408 z"
       sodipodi:ry="10.985409"
       sodipodi:rx="12.121831"
       sodipodi:cy="33.821693"
       sodipodi:cx="28.53681"
       id="path3755"
       style="color:#000000;fill:#ffffff;fill-opacity:1;fill-rule:nonzero;stroke:none;stroke-width:0.20000000000000001;marker:none;visibility:visible;display:inline;overflow:visible;enable-background:accumulate"
       sodipodi:type="arc" />
    <path
       sodipodi:type="arc"
       style="color:#000000;fill:#ffffff;fill-opacity:1;fill-rule:nonzero;stroke:none;stroke-width:0.20000000000000001;marker:none;visibility:visible;display:inline;overflow:visible;enable-background:accumulate"
       id="path3757"
       sodipodi:cx="28.53681"
       sodipodi:cy="33.821693"
       sodipodi:rx="12.121831"
       sodipodi:ry="10.985409"
       d="m 40.658641,33.821693 c 0,6.067074 -5.427129,10.985409 -12.121831,10.985409 -6.694702,0 -12.121831,-4.918335 -12.121831,-10.985409 0,-6.067073 5.427129,-10.985408 12.121831,-10.985408 6.694702,0 12.121831,4.918335 12.121831,10.985408 z"
       transform="matrix(0.45831326,0.4753124,-0.45636913,0.31228726,16.245976,974.19304)" />
    <path
       transform="matrix(0.32568306,-0.25502205,0.29886946,0.2779018,33.378243,994.05086)"
       d="m 40.658641,33.821693 c 0,6.067074 -5.427129,10.985409 -12.121831,10.985409 -6.694702,0 -12.121831,-4.918335 -12.121831,-10.985409 0,-6.067073 5.427129,-10.985408 12.121831,-10.985408 6.694702,0 12.121831,4.918335 12.121831,10.985408 z"
       sodipodi:ry="10.985409"
       sodipodi:rx="12.121831"
       sodipodi:cy="33.821693"
       sodipodi:cx="28.53681"
       id="path3759"
       style="color:#000000;fill:#ffffff;fill-opacity:1;fill-rule:nonzero;stroke:none;stroke-width:0.20000000000000001;marker:none;visibility:visible;display:inline;overflow:visible;enable-background:accumulate"
       sodipodi:type="arc" />
    <path
       sodipodi:type="arc"
       style="color:#000000;fill:#ffffff;fill-opacity:1;fill-rule:nonzero;stroke:none;stroke-width:0.20000000000000001;marker:none;visibility:visible;display:inline;overflow:visible;enable-background:accumulate"
       id="path3761"
       sodipodi:cx="28.53681"
       sodipodi:cy="33.821693"
       sodipodi:rx="12.121831"
       sodipodi:ry="10.985409"
       d="m 40.658641,33.821693 c 0,6.067074 -5.427129,10.985409 -12.121831,10.985409 -6.694702,0 -12.121831,-4.918335 -12.121831,-10.985409 0,-6.067073 5.427129,-10.985408 12.121831,-10.985408 6.694702,0 12.121831,4.918335 12.121831,10.985408 z"
       transform="matrix(0.43750002,0,0,0.43750002,23.123022,985.66863)" />
    <path
       transform="translate(-3.282996,1003.5145)"
       d="m 40.658641,33.821693 c 0,6.067074 -5.427129,10.985409 -12.121831,10.985409 -6.694702,0 -12.121831,-4.918335 -12.121831,-10.985409 0,-6.067073 5.427129,-10.985408 12.121831,-10.985408 6.694702,0 12.121831,4.918335 12.121831,10.985408 z"
       sodipodi:ry="10.985409"
       sodipodi:rx="12.121831"
       sodipodi:cy="33.821693"
       sodipodi:cx="28.53681"
       id="path3763"
       style="color:#000000;fill:#ffffff;fill-opacity:1;fill-rule:nonzero;stroke:none;stroke-width:0.20000000000000001;marker:none;visibility:visible;display:inline;overflow:visible;enable-background:accumulate"
       sodipodi:type="arc" />
    <path
       sodipodi:type="arc"
       style="color:#000000;fill:#ffffff;fill-opacity:1;fill-rule:nonzero;stroke:none;stroke-width:0.20000000000000001;marker:none;visibility:visible;display:inline;overflow:visible;enable-background:accumulate"
       id="path3765"
       sodipodi:cx="28.53681"
       sodipodi:cy="33.821693"
       sodipodi:rx="12.121831"
       sodipodi:ry="10.985409"
       d="m 40.658641,33.821693 c 0,6.067074 -5.427129,10.985409 -12.121831,10.985409 -6.694702,0 -12.121831,-4.918335 -12.121831,-10.985409 0,-6.067073 5.427129,-10.985408 12.121831,-10.985408 6.694702,0 12.121831,4.918335 12.121831,10.985408 z"
       transform="matrix(0.64583334,0,0,0.64583334,30.814914,988.97656)" />
    <path
       transform="matrix(0.19621539,-0.15491782,0.0908139,0.11502282,1.9357614,1034.205)"
       d="m 40.658641,33.821693 c 0,6.067074 -5.427129,10.985409 -12.121831,10.985409 -6.694702,0 -12.121831,-4.918335 -12.121831,-10.985409 0,-6.067073 5.427129,-10.985408 12.121831,-10.985408 6.694702,0 12.121831,4.918335 12.121831,10.985408 z"
       sodipodi:ry="10.985409"
       sodipodi:rx="12.121831"
       sodipodi:cy="33.821693"
       sodipodi:cx="28.53681"
       id="path3767"
       style="color:#000000;fill:#ffffff;fill-opacity:1;fill-rule:nonzero;stroke:none;stroke-width:0.20000000000000001;marker:none;visibility:visible;display:inline;overflow:visible;enable-background:accumulate"
       sodipodi:type="arc" />
    <path
       transform="matrix(0.60416668,0,0,0.60416668,23.165112,1009.3261)"
       d="m 40.658641,33.821693 c 0,6.067074 -5.427129,10.985409 -12.121831,10.985409 -6.694702,0 -12.121831,-4.918335 -12.121831,-10.985409 0,-6.067073 5.427129,-10.985408 12.121831,-10.985408 6.694702,0 12.121831,4.918335 12.121831,10.985408 z"
       sodipodi:ry="10.985409"
       sodipodi:rx="12.121831"
       sodipodi:cy="33.821693"
       sodipodi:cx="28.53681"
       id="path3769"
       style="color:#000000;fill:#ffffff;fill-opacity:1;fill-rule:nonzero;stroke:none;stroke-width:0.20000000000000001;marker:none;visibility:visible;display:inline;overflow:visible;enable-background:accumulate"
       sodipodi:type="arc" />
    <path
       transform="matrix(0.33345835,0.11932967,-0.07925494,0.22147234,47.20786,1014.571)"
       d="m 40.658641,33.821693 c 0,6.067074 -5.427129,10.985409 -12.121831,10.985409 -6.694702,0 -12.121831,-4.918335 -12.121831,-10.985409 0,-6.067073 5.427129,-10.985408 12.121831,-10.985408 6.694702,0 12.121831,4.918335 12.121831,10.985408 z"
       sodipodi:ry="10.985409"
       sodipodi:rx="12.121831"
       sodipodi:cy="33.821693"
       sodipodi:cx="28.53681"
       id="path3771"
       style="color:#000000;fill:#ffffff;fill-opacity:1;fill-rule:nonzero;stroke:none;stroke-width:0.20000000000000001;marker:none;visibility:visible;display:inline;overflow:visible;enable-background:accumulate"
       sodipodi:type="arc" />
    <path
       sodipodi:type="arc"
       style="color:#000000;fill:#ffffff;fill-opacity:1;fill-rule:nonzero;stroke:none;stroke-width:0.20000000000000001;marker:none;visibility:visible;display:inline;overflow:visible;enable-background:accumulate"
       id="path3773"
       sodipodi:cx="28.53681"
       sodipodi:cy="33.821693"
       sodipodi:rx="12.121831"
       sodipodi:ry="10.985409"
       d="m 40.658641,33.821693 c 0,6.067074 -5.427129,10.985409 -12.121831,10.985409 -6.694702,0 -12.121831,-4.918335 -12.121831,-10.985409 0,-6.067073 5.427129,-10.985408 12.121831,-10.985408 6.694702,0 12.121831,4.918335 12.121831,10.985408 z"
       transform="matrix(0.20192202,0.43454368,-0.28860997,0.13411013,47.183089,1026.2082)" />
    <path
       transform="matrix(0.47112872,-0.08739816,0.05804706,0.31290858,-6.3163877,1014.3474)"
       d="m 40.658641,33.821693 c 0,6.067074 -5.427129,10.985409 -12.121831,10.985409 -6.694702,0 -12.121831,-4.918335 -12.121831,-10.985409 0,-6.067073 5.427129,-10.985408 12.121831,-10.985408 6.694702,0 12.121831,4.918335 12.121831,10.985408 z"
       sodipodi:ry="10.985409"
       sodipodi:rx="12.121831"
       sodipodi:cy="33.821693"
       sodipodi:cx="28.53681"
       id="path3775"
       style="color:#000000;fill:#ffffff;fill-opacity:1;fill-rule:nonzero;stroke:none;stroke-width:0.20000000000000001;marker:none;visibility:visible;display:inline;overflow:visible;enable-background:accumulate"
       sodipodi:type="arc" />
    <path
       sodipodi:type="arc"
       style="color:#000000;fill:#ffffff;fill-opacity:1;fill-rule:nonzero;stroke:none;stroke-width:0.20000000000000001;marker:none;visibility:visible;display:inline;overflow:visible;enable-background:accumulate"
       id="path3777"
       sodipodi:cx="28.53681"
       sodipodi:cy="33.821693"
       sodipodi:rx="12.121831"
       sodipodi:ry="10.985409"
       d="m 40.658641,33.821693 c 0,6.067074 -5.427129,10.985409 -12.121831,10.985409 -6.694702,0 -12.121831,-4.918335 -12.121831,-10.985409 0,-6.067073 5.427129,-10.985408 12.121831,-10.985408 6.694702,0 12.121831,4.918335 12.121831,10.985408 z"
       transform="matrix(0.20150839,0.14796749,-0.08673957,0.11812561,7.7898748,1001.4656)" />
    <path
       transform="matrix(0.19621539,0.15491782,-0.0908139,0.11502282,24.4937,986.97753)"
       d="m 40.658641,33.821693 c 0,6.067074 -5.427129,10.985409 -12.121831,10.985409 -6.694702,0 -12.121831,-4.918335 -12.121831,-10.985409 0,-6.067073 5.427129,-10.985408 12.121831,-10.985408 6.694702,0 12.121831,4.918335 12.121831,10.985408 z"
       sodipodi:ry="10.985409"
       sodipodi:rx="12.121831"
       sodipodi:cy="33.821693"
       sodipodi:cx="28.53681"
       id="path3779"
       style="color:#000000;fill:#ffffff;fill-opacity:1;fill-rule:nonzero;stroke:none;stroke-width:0.20000000000000001;marker:none;visibility:visible;display:inline;overflow:visible;enable-background:accumulate"
       sodipodi:type="arc" />
    <path
       sodipodi:type="arc"
       style="color:#000000;fill:#ffffff;fill-opacity:1;fill-rule:nonzero;stroke:none;stroke-width:0.20000000000000001;marker:none;visibility:visible;display:inline;overflow:visible;enable-background:accumulate"
       id="path3781"
       sodipodi:cx="28.53681"
       sodipodi:cy="33.821693"
       sodipodi:rx="12.121831"
       sodipodi:ry="10.985409"
       d="m 40.658641,33.821693 c 0,6.067074 -5.427129,10.985409 -12.121831,10.985409 -6.694702,0 -12.121831,-4.918335 -12.121831,-10.985409 0,-6.067073 5.427129,-10.985408 12.121831,-10.985408 6.694702,0 12.121831,4.918335 12.121831,10.985408 z"
       transform="matrix(0.23766292,-0.07756512,0.04546921,0.13931964,51.279014,1013.2457)" />
    <path
       sodipodi:type="arc"
       style="color:#000000;fill:#ffffff;fill-opacity:1;fill-rule:nonzero;stroke:none;stroke-width:0.20000000000000001;marker:none;visibility:visible;display:inline;overflow:visible;enable-background:accumulate"
       id="path3783"
       sodipodi:cx="28.53681"
       sodipodi:cy="33.821693"
       sodipodi:rx="12.121831"
       sodipodi:ry="10.985409"
       d="m 40.658641,33.821693 c 0,6.067074 -5.427129,10.985409 -12.121831,10.985409 -6.694702,0 -12.121831,-4.918335 -12.121831,-10.985409 0,-6.067073 5.427129,-10.985408 12.121831,-10.985408 6.694702,0 12.121831,4.918335 12.121831,10.985408 z"
       transform="matrix(0.23567476,-0.26436991,0.17558601,0.15652762,-1.0472678,1045.1422)" />
    <path
       transform="matrix(-0.02620116,0.35319618,-0.23458157,-0.01740197,52.370742,986.68187)"
       d="m 40.658641,33.821693 c 0,6.067074 -5.427129,10.985409 -12.121831,10.985409 -6.694702,0 -12.121831,-4.918335 -12.121831,-10.985409 0,-6.067073 5.427129,-10.985408 12.121831,-10.985408 6.694702,0 12.121831,4.918335 12.121831,10.985408 z"
       sodipodi:ry="10.985409"
       sodipodi:rx="12.121831"
       sodipodi:cy="33.821693"
       sodipodi:cx="28.53681"
       id="path3785"
       style="color:#000000;fill:#ffffff;fill-opacity:1;fill-rule:nonzero;stroke:none;stroke-width:0.20000000000000001;marker:none;visibility:visible;display:inline;overflow:visible;enable-background:accumulate"
       sodipodi:type="arc" />
    <path
       transform="matrix(0.45831326,0.4753124,-0.45636913,0.31228726,57.66223,1015.3568)"
       d="m 40.658641,33.821693 c 0,6.067074 -5.427129,10.985409 -12.121831,10.985409 -6.694702,0 -12.121831,-4.918335 -12.121831,-10.985409 0,-6.067073 5.427129,-10.985408 12.121831,-10.985408 6.694702,0 12.121831,4.918335 12.121831,10.985408 z"
       sodipodi:ry="10.985409"
       sodipodi:rx="12.121831"
       sodipodi:cy="33.821693"
       sodipodi:cx="28.53681"
       id="path3787"
       style="color:#000000;fill:#ffffff;fill-opacity:1;fill-rule:nonzero;stroke:none;stroke-width:0.20000000000000001;marker:none;visibility:visible;display:inline;overflow:visible;enable-background:accumulate"
       sodipodi:type="arc" />
  </g>
</svg>
